<?xml version="1.0" encoding="UTF-8" standalone="no"?>
<svg
   id="canvas"
   viewBox="272.935 352.816 1028.871 152.349"
   version="1.1"
   sodipodi:docname="lassociation.svg"
   inkscape:version="1.3.2 (091e20e, 2023-11-25, custom)"
   xmlns:inkscape="http://www.inkscape.org/namespaces/inkscape"
   xmlns:sodipodi="http://sodipodi.sourceforge.net/DTD/sodipodi-0.dtd"
   xmlns="http://www.w3.org/2000/svg"
   xmlns:svg="http://www.w3.org/2000/svg">
  <defs
     id="defs17" />
  <sodipodi:namedview
     id="namedview17"
     pagecolor="#ffffff"
     bordercolor="#000000"
     borderopacity="0.25"
     inkscape:showpageshadow="2"
     inkscape:pageopacity="0.0"
     inkscape:pagecheckerboard="0"
     inkscape:deskcolor="#d1d1d1"
     inkscape:zoom="1.2518577"
     inkscape:cx="514.43549"
     inkscape:cy="76.286629"
     inkscape:window-width="1920"
     inkscape:window-height="1009"
     inkscape:window-x="-8"
     inkscape:window-y="1072"
     inkscape:window-maximized="1"
     inkscape:current-layer="canvas" />
  <path
     d="M 315.59,374.38 C 314.05 375.07, 313.11 376.14, 312.03 378.84 C 310.96 381.54, 311.30 383.51, 310.23 387.88 C 309.16 392.24, 308.43 395.18, 306.68 400.65 C 304.94 406.12, 303.82 409.21, 301.49 415.23 C 299.17 421.26, 297.70 424.59, 295.07 430.77 C 292.44 436.95, 290.86 440.24, 288.34 446.15 C 285.83 452.06, 284.50 455.03, 282.48 460.32 C 280.47 465.62, 279.57 468.12, 278.28 472.60 C 277.00 477.08, 276.33 479.02, 276.06 482.73 C 275.80 486.45, 275.88 488.19, 276.95 491.17 C 278.03 494.16, 279.13 495.57, 281.45 497.66 C 283.77 499.75, 285.36 500.81, 288.54 501.64 C 291.72 502.48, 293.54 502.13, 297.35 501.84 C 301.16 501.55, 303.23 501.01, 307.59 500.19 C 311.95 499.37, 314.47 498.77, 319.14 497.72 C 323.82 496.68, 326.38 495.98, 330.97 494.97 C 335.56 493.96, 337.99 493.39, 342.10 492.67 C 346.22 491.95, 348.25 491.80, 351.55 491.36 C 354.85 490.92, 356.41 491.09, 358.58 490.47 C 360.75 489.86, 361.29 489.10, 362.39 488.30 C 363.49 487.50, 363.78 487.30, 364.08 486.47 C 364.37 485.63, 364.35 484.88, 363.86 484.11 C 363.38 483.34, 362.97 483.11, 361.64 482.63 C 360.31 482.15, 359.54 481.63, 357.22 481.71 C 354.90 481.80, 353.35 482.29, 350.02 483.06 C 346.70 483.84, 344.70 484.56, 340.59 485.60 C 336.48 486.64, 334.05 487.23, 329.48 488.25 C 324.91 489.28, 322.34 489.91, 317.74 490.72 C 313.14 491.54, 310.60 491.94, 306.47 492.32 C 302.34 492.71, 300.24 492.73, 297.08 492.64 C 293.92 492.56, 292.77 492.22, 290.68 491.89 C 288.60 491.57, 287.90 491.73, 286.65 491.03 C 285.40 490.33, 285.08 490.01, 284.45 488.40 C 283.83 486.79, 283.58 485.86, 283.54 482.99 C 283.49 480.11, 283.46 478.20, 284.24 474.02 C 285.02 469.84, 285.73 467.29, 287.45 462.09 C 289.17 456.89, 290.43 453.90, 292.84 448.02 C 295.25 442.14, 296.80 438.84, 299.49 432.68 C 302.19 426.52, 303.71 423.19, 306.32 417.21 C 308.92 411.23, 310.26 408.20, 312.51 402.79 C 314.76 397.38, 315.91 394.49, 317.55 390.17 C 319.20 385.84, 320.32 384.11, 320.75 381.15 C 321.18 378.20, 320.75 376.75, 319.72 375.40 C 318.68 374.04, 317.12 373.69, 315.59 374.38"
     style="stroke:black;fill:black;stroke-width:3.4;stroke-dasharray:none"
     id="path1" />
  <path
     d="M 433.51,356.13 C 431.93 356.71, 431.04 357.66, 429.88 359.90 C 428.71 362.13, 428.60 363.96, 427.68 367.30 C 426.76 370.64, 426.11 372.75, 425.30 376.60 C 424.49 380.46, 422.86 384.21, 423.63 386.59 C 424.40 388.98, 427.06 389.94, 429.15 388.52 C 431.25 387.09, 432.46 383.15, 434.11 379.48 C 435.76 375.81, 436.30 373.60, 437.39 370.18 C 438.48 366.75, 439.49 365.00, 439.56 362.36 C 439.64 359.72, 438.98 358.23, 437.77 356.99 C 436.56 355.74, 435.08 355.55, 433.51 356.13"
     style="stroke:black;fill:black;stroke-width:3.4;stroke-dasharray:none"
     id="path2" />
  <path
     d="M 518.28,375.14 C 516.71 374.91, 515.34 375.01, 513.40 376.72 C 511.46 378.42, 510.89 380.16, 508.59 383.68 C 506.30 387.19, 505.01 389.54, 501.95 394.31 C 498.88 399.08, 497.10 401.95, 493.26 407.54 C 489.42 413.13, 487.14 416.25, 482.75 422.25 C 478.37 428.26, 475.84 431.51, 471.33 437.55 C 466.82 443.60, 464.43 446.82, 460.19 452.50 C 455.94 458.18, 453.79 461.08, 450.12 465.95 C 446.46 470.82, 444.71 473.16, 441.87 476.84 C 439.03 480.52, 436.96 481.88, 435.94 484.35 C 434.92 486.83, 435.54 488.40, 436.76 489.23 C 437.98 490.05, 439.99 489.62, 442.04 488.47 C 444.09 487.31, 446.18 485.95, 446.99 483.46 C 447.80 480.98, 447.46 478.06, 446.10 476.06 C 444.74 474.06, 442.59 473.10, 440.19 473.47 C 437.79 473.85, 435.35 475.61, 434.10 477.94 C 432.85 480.27, 433.35 482.71, 433.93 485.14 C 434.51 487.56, 435.31 489.36, 436.98 490.06 C 438.66 490.76, 440.33 490.61, 442.30 488.64 C 444.28 486.67, 444.50 484.19, 446.85 480.22 C 449.20 476.24, 450.69 473.78, 454.06 468.75 C 457.43 463.72, 459.56 460.80, 463.70 455.07 C 467.83 449.34, 470.20 446.13, 474.73 440.10 C 479.26 434.07, 481.80 430.84, 486.32 424.93 C 490.85 419.01, 493.22 415.91, 497.37 410.54 C 501.53 405.17, 503.52 402.43, 507.10 398.06 C 510.68 393.69, 512.59 391.80, 515.27 388.69 C 517.96 385.58, 519.33 384.66, 520.53 382.49 C 521.73 380.33, 521.73 379.32, 521.28 377.85 C 520.83 376.38, 519.86 375.37, 518.28 375.14"
     style="stroke:black;fill:black;stroke-width:3.4;stroke-dasharray:none"
     id="path3" />
  <path
     d="M 516.31,379.87 C 515.03 380.47, 514.53 380.89, 513.79 382.77 C 513.05 384.65, 512.96 385.87, 512.60 389.27 C 512.23 392.67, 512.51 395.09, 511.96 399.79 C 511.42 404.48, 510.90 407.38, 509.87 412.75 C 508.85 418.11, 508.08 421.13, 506.85 426.62 C 505.62 432.11, 504.85 434.99, 503.72 440.20 C 502.60 445.41, 502.06 448.04, 501.23 452.68 C 500.40 457.31, 500.04 459.49, 499.59 463.36 C 499.13 467.23, 498.57 469.16, 498.95 472.02 C 499.34 474.89, 500.44 476.11, 501.53 477.69 C 502.62 479.26, 503.31 479.65, 504.40 479.89 C 505.48 480.14, 506.28 479.69, 506.97 478.90 C 507.66 478.10, 507.63 477.48, 507.84 475.92 C 508.05 474.36, 508.19 473.53, 508.03 471.09 C 507.87 468.65, 507.15 467.22, 507.04 463.72 C 506.94 460.22, 507.04 458.05, 507.51 453.58 C 507.99 449.11, 508.44 446.50, 509.44 441.37 C 510.44 436.25, 511.18 433.39, 512.51 427.94 C 513.84 422.50, 514.67 419.49, 516.08 414.16 C 517.49 408.83, 518.29 405.97, 519.58 401.28 C 520.88 396.59, 521.90 394.29, 522.54 390.71 C 523.19 387.13, 523.29 385.55, 522.81 383.37 C 522.34 381.19, 521.48 380.50, 520.18 379.81 C 518.88 379.11, 517.59 379.28, 516.31 379.87"
     style="stroke:black;fill:black;stroke-width:3.4;stroke-dasharray:none"
     id="path4" />
  <path
     d="M 472.97,443.31 C 473.86 444.31, 474.17 444.07, 475.82 444.77 C 477.47 445.48, 478.64 447.41, 481.20 446.83 C 483.77 446.25, 487.43 444.50, 488.65 441.87 C 489.87 439.23, 489.44 435.74, 487.32 433.64 C 485.19 431.55, 480.90 430.87, 478.05 431.39 C 475.19 431.92, 474.37 434.60, 473.03 436.28 C 471.70 437.96, 471.38 438.40, 471.36 439.80 C 471.35 441.21, 472.07 442.32, 472.97 443.31"
     style="stroke:black;fill:black;stroke-width:3.4;stroke-dasharray:none"
     id="path5" />
  <path
     d="M 598.21,422.00 C 597.26 420.59, 596.03 419.74, 593.46 419.32 C 590.90 418.91, 589.05 419.18, 585.39 419.92 C 581.73 420.66, 579.28 421.50, 575.17 423.03 C 571.05 424.56, 568.77 425.69, 564.82 427.55 C 560.86 429.42, 558.70 430.28, 555.41 432.35 C 552.11 434.42, 550.22 435.32, 548.35 437.90 C 546.48 440.48, 546.06 442.35, 546.07 445.26 C 546.07 448.16, 546.63 449.96, 548.38 452.43 C 550.12 454.90, 551.65 456.02, 554.80 457.60 C 557.96 459.19, 560.25 459.33, 564.14 460.37 C 568.03 461.41, 570.39 461.78, 574.26 462.82 C 578.13 463.86, 580.29 464.47, 583.47 465.56 C 586.64 466.66, 588.09 467.66, 590.14 468.32 C 592.18 468.98, 593.00 468.81, 593.69 468.86 C 594.38 468.92, 594.29 468.58, 593.58 468.58 C 592.87 468.59, 592.02 468.18, 590.14 468.89 C 588.26 469.59, 587.13 470.69, 584.19 472.11 C 581.25 473.54, 579.24 474.65, 575.43 476.02 C 571.62 477.39, 569.22 478.06, 565.14 478.97 C 561.06 479.89, 558.70 480.28, 555.02 480.61 C 551.34 480.94, 549.45 480.48, 546.73 480.64 C 544.01 480.80, 542.97 480.91, 541.42 481.41 C 539.87 481.92, 539.56 482.60, 538.96 483.16 C 538.36 483.72, 538.68 483.84, 538.41 484.22 C 538.14 484.60, 537.68 484.50, 537.60 485.07 C 537.52 485.63, 537.32 486.18, 538.02 487.06 C 538.71 487.93, 539.22 488.79, 541.07 489.45 C 542.91 490.10, 544.24 490.47, 547.25 490.32 C 550.27 490.17, 552.25 489.43, 556.16 488.70 C 560.07 487.96, 562.46 487.53, 566.80 486.62 C 571.13 485.72, 573.60 485.17, 577.84 484.16 C 582.09 483.15, 584.37 482.79, 588.00 481.56 C 591.63 480.34, 593.66 480.03, 595.99 478.04 C 598.32 476.05, 599.07 474.23, 599.66 471.63 C 600.26 469.03, 600.04 467.40, 598.97 465.03 C 597.90 462.66, 596.88 461.37, 594.32 459.78 C 591.77 458.18, 589.74 458.10, 586.19 457.06 C 582.64 456.01, 580.42 455.65, 576.58 454.53 C 572.74 453.41, 570.45 452.77, 566.99 451.47 C 563.52 450.16, 561.78 449.04, 559.26 447.99 C 556.75 446.95, 555.72 446.76, 554.43 446.26 C 553.14 445.75, 552.70 445.96, 552.81 445.46 C 552.92 444.96, 553.52 444.92, 554.97 443.75 C 556.42 442.57, 557.41 441.35, 560.07 439.59 C 562.73 437.82, 564.70 436.57, 568.26 434.93 C 571.82 433.29, 574.08 432.40, 577.86 431.38 C 581.63 430.37, 583.91 430.33, 587.14 429.85 C 590.38 429.37, 591.83 429.70, 594.04 429.00 C 596.25 428.30, 597.36 427.76, 598.19 426.36 C 599.02 424.96, 599.15 423.40, 598.21 422.00"
     style="stroke:black;fill:black;stroke-width:3.4;stroke-dasharray:none"
     id="path6" />
  <path
     d="M 677.04,428.37 C 676.79 426.81, 676.12 425.84, 674.25 424.60 C 672.37 423.37, 670.83 422.34, 667.67 422.19 C 664.52 422.03, 662.34 422.81, 658.47 423.84 C 654.61 424.87, 652.48 425.77, 648.36 427.35 C 644.23 428.93, 641.90 429.87, 637.85 431.74 C 633.81 433.61, 631.61 434.58, 628.14 436.68 C 624.66 438.79, 622.60 439.64, 620.47 442.24 C 618.34 444.84, 617.79 446.68, 617.47 449.69 C 617.16 452.69, 617.46 454.53, 618.89 457.27 C 620.31 460.00, 621.68 461.47, 624.58 463.37 C 627.48 465.26, 629.67 465.52, 633.39 466.75 C 637.12 467.97, 639.37 468.39, 643.20 469.48 C 647.03 470.58, 649.23 471.07, 652.53 472.22 C 655.83 473.37, 657.34 474.46, 659.69 475.22 C 662.05 475.98, 663.15 475.99, 664.31 476.01 C 665.48 476.04, 665.73 475.66, 665.54 475.34 C 665.34 475.02, 664.83 474.35, 663.34 474.42 C 661.85 474.49, 660.73 474.71, 658.10 475.68 C 655.47 476.65, 653.80 477.95, 650.19 479.27 C 646.57 480.59, 644.20 481.27, 640.01 482.28 C 635.82 483.28, 633.34 483.72, 629.23 484.28 C 625.13 484.84, 622.91 484.97, 619.48 485.07 C 616.05 485.16, 614.43 484.71, 612.09 484.75 C 609.75 484.79, 609.02 484.94, 607.78 485.28 C 606.54 485.61, 606.41 486.06, 605.90 486.42 C 605.39 486.79, 605.63 486.81, 605.22 487.10 C 604.82 487.40, 604.11 487.33, 603.86 487.89 C 603.61 488.46, 603.44 488.99, 603.97 489.93 C 604.49 490.86, 604.89 491.73, 606.47 492.57 C 608.05 493.41, 609.12 493.95, 611.85 494.13 C 614.58 494.30, 616.42 493.88, 620.12 493.42 C 623.82 492.97, 626.06 492.54, 630.35 491.85 C 634.65 491.17, 637.14 490.75, 641.58 490.00 C 646.01 489.25, 648.44 488.83, 652.53 488.10 C 656.62 487.38, 658.83 487.55, 662.02 486.38 C 665.22 485.21, 666.75 484.33, 668.51 482.26 C 670.26 480.19, 670.73 478.45, 670.81 476.03 C 670.89 473.60, 670.38 472.18, 668.91 470.14 C 667.45 468.10, 666.22 467.12, 663.47 465.82 C 660.72 464.53, 658.69 464.62, 655.15 463.67 C 651.61 462.72, 649.42 462.25, 645.74 461.08 C 642.07 459.91, 639.94 459.18, 636.78 457.80 C 633.63 456.41, 632.20 455.25, 629.97 454.15 C 627.73 453.05, 626.70 452.94, 625.63 452.29 C 624.55 451.64, 624.26 451.66, 624.59 450.91 C 624.92 450.15, 625.66 449.97, 627.27 448.52 C 628.88 447.07, 629.85 445.58, 632.63 443.65 C 635.40 441.72, 637.47 440.56, 641.14 438.88 C 644.81 437.19, 647.19 436.30, 650.99 435.23 C 654.79 434.16, 656.88 433.71, 660.13 433.52 C 663.38 433.34, 664.85 434.26, 667.23 434.31 C 669.61 434.35, 670.38 434.14, 672.03 433.76 C 673.68 433.38, 674.48 433.48, 675.49 432.40 C 676.49 431.32, 677.28 429.93, 677.04 428.37"
     style="stroke:black;fill:black;stroke-width:3.4;stroke-dasharray:none"
     id="path7" />
  <path
     d="M 758.95,439.69 C 759.36 438.19, 759.19 437.01, 757.98 435.41 C 756.77 433.81, 755.56 432.63, 752.90 431.68 C 750.24 430.73, 748.23 430.29, 744.68 430.66 C 741.12 431.02, 739.16 432.00, 735.13 433.51 C 731.10 435.02, 728.88 435.96, 724.53 438.21 C 720.18 440.46, 717.67 441.85, 713.39 444.76 C 709.11 447.66, 706.81 449.44, 703.14 452.75 C 699.48 456.06, 697.64 457.82, 695.06 461.31 C 692.48 464.81, 691.03 466.61, 690.26 470.22 C 689.49 473.83, 689.76 476.16, 691.20 479.37 C 692.65 482.59, 694.19 484.43, 697.47 486.32 C 700.75 488.20, 703.14 488.43, 707.61 488.81 C 712.08 489.19, 714.66 488.91, 719.82 488.23 C 724.98 487.54, 727.93 486.91, 733.39 485.37 C 738.86 483.83, 741.89 482.78, 747.15 480.53 C 752.41 478.27, 755.14 476.85, 759.70 474.10 C 764.27 471.34, 766.49 469.83, 769.98 466.77 C 773.47 463.70, 775.07 462.11, 777.16 458.77 C 779.24 455.43, 780.07 453.48, 780.41 450.07 C 780.75 446.66, 780.19 444.70, 778.85 441.72 C 777.51 438.74, 776.16 437.23, 773.71 435.18 C 771.26 433.13, 769.43 432.21, 766.60 431.46 C 763.77 430.72, 761.84 430.87, 759.56 431.48 C 757.28 432.08, 756.01 433.07, 755.18 434.48 C 754.36 435.89, 754.65 437.23, 755.45 438.53 C 756.24 439.84, 757.52 440.24, 759.16 441.01 C 760.80 441.77, 761.90 441.87, 763.65 442.37 C 765.41 442.86, 766.46 442.82, 767.94 443.49 C 769.41 444.17, 770.23 444.57, 771.02 445.74 C 771.81 446.91, 771.99 447.52, 771.89 449.36 C 771.79 451.20, 771.79 452.43, 770.51 454.95 C 769.23 457.47, 768.27 459.15, 765.48 461.96 C 762.69 464.78, 760.67 466.38, 756.55 469.02 C 752.43 471.67, 749.82 473.09, 744.87 475.18 C 739.93 477.27, 736.99 478.22, 731.85 479.46 C 726.70 480.70, 723.80 481.09, 719.15 481.37 C 714.49 481.65, 712.06 481.44, 708.57 480.86 C 705.08 480.28, 703.73 479.45, 701.70 478.47 C 699.68 477.50, 699.11 477.26, 698.43 475.97 C 697.76 474.69, 697.80 474.15, 698.33 472.06 C 698.86 469.97, 699.20 468.40, 701.08 465.53 C 702.96 462.66, 704.53 460.75, 707.73 457.73 C 710.94 454.70, 713.14 452.97, 717.13 450.40 C 721.11 447.83, 723.59 446.58, 727.66 444.88 C 731.73 443.18, 734.02 442.49, 737.49 441.88 C 740.96 441.28, 742.58 441.66, 745.01 441.85 C 747.44 442.04, 748.07 442.52, 749.63 442.81 C 751.19 443.10, 751.55 443.29, 752.81 443.30 C 754.07 443.31, 754.69 443.61, 755.92 442.88 C 757.14 442.16, 758.53 441.18, 758.95 439.69"
     style="stroke:black;fill:black;stroke-width:3.4;stroke-dasharray:none"
     id="path8" />
  <path
     d="M 865.23,433.11 C 864.80 431.61, 864.06 430.68, 862.02 429.72 C 859.98 428.76, 858.36 428.05, 855.03 428.31 C 851.70 428.57, 849.52 429.49, 845.37 431.01 C 841.22 432.54, 838.92 433.66, 834.27 435.95 C 829.62 438.24, 826.91 439.63, 822.12 442.47 C 817.33 445.31, 814.65 447.02, 810.30 450.16 C 805.96 453.31, 803.78 455.03, 800.39 458.21 C 796.99 461.38, 795.14 462.78, 793.32 466.05 C 791.50 469.32, 791.00 471.29, 791.28 474.54 C 791.57 477.79, 792.39 479.92, 794.76 482.32 C 797.12 484.73, 799.17 485.57, 803.10 486.57 C 807.03 487.57, 809.44 487.42, 814.42 487.31 C 819.40 487.21, 822.28 486.86, 828.00 486.05 C 833.73 485.24, 837.01 484.59, 843.04 483.26 C 849.06 481.94, 852.34 481.07, 858.12 479.40 C 863.89 477.73, 866.83 476.75, 871.89 474.92 C 876.96 473.09, 879.38 472.06, 883.46 470.26 C 887.54 468.45, 889.72 467.71, 892.29 465.91 C 894.85 464.10, 895.32 462.87, 896.29 461.23 C 897.27 459.60, 897.35 458.79, 897.14 457.75 C 896.94 456.72, 896.22 456.26, 895.27 456.05 C 894.31 455.85, 893.91 456.16, 892.36 456.72 C 890.82 457.28, 889.93 457.32, 887.54 458.85 C 885.15 460.39, 883.94 462.23, 880.41 464.38 C 876.87 466.54, 874.61 467.65, 869.85 469.63 C 865.09 471.60, 862.20 472.60, 856.61 474.25 C 851.02 475.90, 847.77 476.73, 841.91 477.88 C 836.06 479.02, 832.79 479.54, 827.33 479.98 C 821.87 480.41, 819.02 480.40, 814.62 480.03 C 810.22 479.67, 808.21 478.96, 805.33 478.15 C 802.46 477.34, 801.60 476.81, 800.24 475.99 C 798.87 475.17, 798.52 475.25, 798.51 474.05 C 798.49 472.84, 798.82 472.19, 800.15 469.98 C 801.48 467.76, 802.39 465.95, 805.15 462.99 C 807.92 460.02, 809.96 458.17, 813.98 455.15 C 818.00 452.13, 820.62 450.46, 825.24 447.90 C 829.85 445.34, 832.60 444.05, 837.07 442.35 C 841.54 440.64, 843.86 439.94, 847.59 439.38 C 851.31 438.82, 853.05 439.65, 855.70 439.55 C 858.34 439.45, 859.12 439.36, 860.81 438.89 C 862.50 438.42, 863.27 438.37, 864.15 437.21 C 865.04 436.05, 865.65 434.61, 865.23 433.11"
     style="stroke:black;fill:black;stroke-width:3.4;stroke-dasharray:none"
     id="path9" />
  <path
     d="M 924.11,435.20 C 922.62 435.23, 921.92 435.61, 920.39 436.98 C 918.86 438.34, 917.95 439.35, 916.47 442.03 C 914.99 444.70, 914.50 446.93, 912.99 450.36 C 911.48 453.79, 910.57 455.84, 908.94 459.18 C 907.30 462.53, 906.00 464.17, 904.83 467.08 C 903.66 469.99, 903.40 471.56, 903.07 473.72 C 902.75 475.88, 902.83 476.64, 903.20 477.90 C 903.57 479.16, 904.30 479.55, 904.93 480.03 C 905.57 480.51, 906.06 480.31, 906.39 480.29 C 906.72 480.28, 906.28 479.99, 906.57 479.96 C 906.85 479.92, 907.15 480.25, 907.81 480.10 C 908.46 479.96, 909.06 479.97, 909.84 479.23 C 910.61 478.49, 910.82 478.05, 911.68 476.40 C 912.54 474.75, 913.01 473.59, 914.14 470.97 C 915.28 468.35, 915.78 466.50, 917.36 463.32 C 918.93 460.14, 920.08 458.22, 922.01 455.06 C 923.93 451.90, 925.60 450.32, 926.98 447.53 C 928.36 444.74, 928.74 443.25, 928.92 441.11 C 929.09 438.97, 928.80 438.01, 927.84 436.83 C 926.88 435.65, 925.60 435.18, 924.11 435.20"
     style="stroke:black;fill:black;stroke-width:3.4;stroke-dasharray:none"
     id="path10" />
  <path
     d="M 940.52,387.12 C 938.92 386.50, 937.39 386.43, 935.50 387.28 C 933.61 388.12, 932.26 389.47, 931.08 391.32 C 929.90 393.16, 929.64 394.55, 929.60 396.48 C 929.56 398.42, 930.20 399.67, 930.87 400.98 C 931.54 402.29, 932.01 402.69, 932.95 403.03 C 933.89 403.38, 934.70 402.92, 935.57 402.71 C 936.43 402.50, 936.38 402.29, 937.30 401.97 C 938.22 401.64, 939.05 401.79, 940.16 401.10 C 941.27 400.41, 942.05 399.88, 942.83 398.52 C 943.62 397.16, 943.94 395.93, 944.08 394.29 C 944.21 392.66, 944.22 391.78, 943.51 390.35 C 942.80 388.91, 942.12 387.73, 940.52 387.12"
     style="stroke:black;fill:black;stroke-width:3.4;stroke-dasharray:none"
     id="path11" />
  <path
     d="M 1003.36,432.89 C 1002.93 431.40, 1002.26 430.71, 1000.42 429.70 C 998.58 428.69, 997.13 427.83, 994.15 427.85 C 991.17 427.86, 989.08 428.56, 985.53 429.79 C 981.99 431.02, 980.17 432.08, 976.41 434.00 C 972.66 435.92, 970.53 437.01, 966.78 439.38 C 963.02 441.75, 960.97 443.18, 957.63 445.85 C 954.29 448.53, 952.51 449.90, 950.06 452.75 C 947.62 455.61, 946.32 457.12, 945.40 460.14 C 944.49 463.16, 944.60 465.07, 945.49 467.86 C 946.39 470.65, 947.45 472.24, 949.89 474.10 C 952.33 475.96, 954.21 476.87, 957.69 477.16 C 961.17 477.45, 963.23 476.61, 967.27 475.56 C 971.30 474.52, 973.52 473.70, 977.87 471.94 C 982.22 470.17, 984.65 469.04, 989.01 466.74 C 993.37 464.44, 995.69 463.00, 999.67 460.43 C 1003.66 457.85, 1005.63 456.31, 1008.93 453.86 C 1012.24 451.40, 1014.46 450.57, 1016.20 448.14 C 1017.93 445.71, 1018.16 443.70, 1017.61 441.70 C 1017.06 439.70, 1015.64 438.50, 1013.47 438.14 C 1011.29 437.78, 1009.07 438.05, 1006.74 439.90 C 1004.41 441.75, 1003.69 444.00, 1001.83 447.39 C 999.96 450.79, 999.05 453.20, 997.40 456.87 C 995.75 460.54, 994.48 462.32, 993.58 465.73 C 992.68 469.13, 992.50 470.88, 992.90 473.90 C 993.31 476.92, 993.95 478.52, 995.62 480.83 C 997.28 483.14, 998.86 484.33, 1001.22 485.45 C 1003.57 486.57, 1005.28 486.84, 1007.38 486.45 C 1009.47 486.05, 1010.88 484.99, 1011.69 483.47 C 1012.51 481.96, 1012.19 480.30, 1011.45 478.87 C 1010.71 477.43, 1009.38 476.91, 1008.00 476.31 C 1006.62 475.70, 1005.80 475.95, 1004.56 475.82 C 1003.33 475.70, 1002.45 476.14, 1001.81 475.69 C 1001.18 475.23, 1001.18 474.94, 1001.39 473.53 C 1001.61 472.12, 1001.95 471.09, 1002.88 468.63 C 1003.82 466.17, 1004.34 464.24, 1006.06 461.22 C 1007.77 458.20, 1009.39 456.28, 1011.44 453.53 C 1013.49 450.79, 1015.31 449.84, 1016.30 447.52 C 1017.30 445.20, 1017.01 443.52, 1016.42 441.94 C 1015.82 440.35, 1014.85 439.63, 1013.34 439.57 C 1011.82 439.52, 1010.73 439.98, 1008.85 441.66 C 1006.96 443.34, 1006.51 445.37, 1003.90 447.97 C 1001.29 450.56, 999.41 452.12, 995.79 454.63 C 992.18 457.14, 989.93 458.50, 985.83 460.52 C 981.73 462.54, 979.34 463.49, 975.29 464.72 C 971.25 465.96, 969.01 466.35, 965.61 466.69 C 962.22 467.03, 960.61 466.46, 958.30 466.42 C 956.00 466.38, 955.24 466.62, 954.08 466.50 C 952.92 466.38, 952.63 466.44, 952.53 465.81 C 952.42 465.17, 952.71 464.80, 953.55 463.31 C 954.40 461.82, 954.92 460.61, 956.75 458.34 C 958.58 456.08, 959.89 454.43, 962.72 451.99 C 965.54 449.55, 967.46 448.16, 970.90 446.14 C 974.34 444.13, 976.47 443.16, 979.90 441.91 C 983.33 440.67, 985.12 440.29, 988.05 439.91 C 990.98 439.53, 992.30 440.17, 994.54 440.02 C 996.77 439.88, 997.63 439.76, 999.24 439.18 C 1000.85 438.61, 1001.77 438.40, 1002.59 437.14 C 1003.42 435.88, 1003.80 434.37, 1003.36 432.89"
     style="stroke:black;fill:black;stroke-width:3.4;stroke-dasharray:none"
     id="path12" />
  <path
     d="M 1089.87,381.86 C 1088.40 381.99, 1087.59 382.26, 1086.17 384.03 C 1084.75 385.80, 1084.35 387.23, 1082.78 390.70 C 1081.21 394.17, 1080.47 396.69, 1078.32 401.39 C 1076.16 406.10, 1074.76 408.99, 1072.02 414.23 C 1069.29 419.47, 1067.56 422.37, 1064.65 427.58 C 1061.73 432.78, 1060.11 435.46, 1057.46 440.26 C 1054.80 445.05, 1053.51 447.43, 1051.35 451.56 C 1049.19 455.69, 1048.12 457.59, 1046.64 460.90 C 1045.17 464.22, 1044.50 465.70, 1043.98 468.15 C 1043.46 470.60, 1043.69 471.68, 1044.04 473.16 C 1044.39 474.65, 1045.09 474.99, 1045.73 475.56 C 1046.37 476.13, 1046.75 476.00, 1047.23 476.02 C 1047.71 476.03, 1047.73 475.80, 1048.15 475.66 C 1048.57 475.52, 1048.77 475.71, 1049.35 475.34 C 1049.93 474.96, 1050.47 474.84, 1051.05 473.80 C 1051.63 472.76, 1051.69 472.17, 1052.25 470.13 C 1052.80 468.09, 1052.87 466.77, 1053.82 463.59 C 1054.78 460.41, 1055.31 458.36, 1057.03 454.22 C 1058.74 450.08, 1059.92 447.69, 1062.39 442.90 C 1064.87 438.12, 1066.46 435.44, 1069.42 430.28 C 1072.38 425.12, 1074.15 422.22, 1077.19 417.12 C 1080.23 412.01, 1081.87 409.21, 1084.62 404.77 C 1087.37 400.33, 1088.98 398.28, 1090.94 394.91 C 1092.90 391.54, 1093.90 390.23, 1094.41 387.92 C 1094.92 385.61, 1094.40 384.57, 1093.49 383.36 C 1092.58 382.14, 1091.33 381.73, 1089.87 381.86"
     style="stroke:black;fill:black;stroke-width:3.4;stroke-dasharray:none"
     id="path13" />
  <path
     d="M 1041.28,440.75 C 1042.27 441.84, 1043.03 442.08, 1044.98 442.31 C 1046.92 442.54, 1048.10 442.47, 1051.01 441.90 C 1053.92 441.33, 1055.72 440.28, 1059.52 439.44 C 1063.32 438.61, 1065.68 438.31, 1070.01 437.72 C 1074.34 437.14, 1076.79 436.89, 1081.15 436.52 C 1085.52 436.15, 1087.81 435.98, 1091.84 435.88 C 1095.87 435.79, 1097.98 435.90, 1101.30 436.03 C 1104.63 436.17, 1106.38 436.52, 1108.47 436.54 C 1110.55 436.55, 1111.21 436.00, 1111.72 436.09 C 1112.23 436.19, 1111.78 436.03, 1111.01 436.99 C 1110.25 437.95, 1109.21 438.63, 1107.89 440.88 C 1106.58 443.13, 1106.03 445.16, 1104.44 448.24 C 1102.85 451.32, 1101.76 453.22, 1099.95 456.29 C 1098.14 459.36, 1096.68 460.95, 1095.39 463.60 C 1094.10 466.24, 1093.88 467.63, 1093.49 469.53 C 1093.09 471.42, 1093.08 471.99, 1093.40 473.08 C 1093.72 474.18, 1094.47 474.58, 1095.09 475.00 C 1095.71 475.42, 1096.46 475.25, 1096.48 475.18 C 1096.51 475.11, 1095.24 474.58, 1095.21 474.66 C 1095.17 474.74, 1095.57 475.40, 1096.30 475.58 C 1097.03 475.76, 1097.83 476.01, 1098.86 475.56 C 1099.88 475.11, 1100.24 474.72, 1101.42 473.32 C 1102.60 471.92, 1103.36 470.98, 1104.75 468.55 C 1106.15 466.13, 1106.67 464.22, 1108.39 461.18 C 1110.12 458.14, 1111.42 456.48, 1113.39 453.37 C 1115.35 450.26, 1117.06 448.74, 1118.21 445.61 C 1119.36 442.48, 1119.55 440.60, 1119.13 437.72 C 1118.72 434.84, 1118.00 433.27, 1116.13 431.21 C 1114.26 429.15, 1112.76 428.14, 1109.78 427.43 C 1106.80 426.71, 1104.88 427.43, 1101.22 427.63 C 1097.56 427.83, 1095.58 428.10, 1091.46 428.43 C 1087.33 428.76, 1085.02 428.95, 1080.59 429.26 C 1076.16 429.57, 1073.75 429.78, 1069.31 429.99 C 1064.87 430.20, 1062.49 430.18, 1058.40 430.31 C 1054.31 430.45, 1052.04 430.07, 1048.86 430.67 C 1045.68 431.26, 1044.28 432.03, 1042.51 433.27 C 1040.74 434.51, 1040.24 435.39, 1039.99 436.89 C 1039.75 438.38, 1040.28 439.67, 1041.28 440.75"
     style="stroke:black;fill:black;stroke-width:3.4;stroke-dasharray:none"
     id="path14" />
  <path
     d="M 1135.04,389.26 C 1136.64 389.42, 1137.63 389.20, 1137.66 389.52 C 1137.68 389.85, 1136.41 390.35, 1135.17 390.87 C 1133.93 391.40, 1132.64 391.90, 1131.47 392.15 C 1130.30 392.41, 1129.24 392.45, 1129.34 392.14 C 1129.44 391.82, 1130.38 391.51, 1131.96 390.58 C 1133.54 389.65, 1135.86 388.77, 1137.24 387.49 C 1138.62 386.21, 1139.25 385.11, 1138.85 384.20 C 1138.45 383.29, 1136.98 382.92, 1135.25 382.94 C 1133.52 382.96, 1131.81 383.50, 1130.20 384.31 C 1128.59 385.12, 1127.30 386.11, 1127.19 386.99 C 1127.08 387.87, 1128.09 388.26, 1129.66 388.72 C 1131.23 389.17, 1133.44 389.10, 1135.04 389.26"
     style="stroke:black;fill:black;stroke-width:3.4;stroke-dasharray:none"
     id="path15" />
  <path
     d="M 1183.16,438.33 C 1183.04 436.78, 1182.46 435.93, 1180.77 434.74 C 1179.07 433.55, 1177.66 432.47, 1174.68 432.38 C 1171.70 432.29, 1169.43 432.82, 1165.86 434.29 C 1162.30 435.76, 1160.54 437.30, 1156.86 439.74 C 1153.19 442.18, 1151.09 443.58, 1147.49 446.49 C 1143.88 449.39, 1141.87 451.05, 1138.86 454.27 C 1135.85 457.48, 1134.17 459.13, 1132.43 462.55 C 1130.70 465.97, 1130.04 467.99, 1130.20 471.38 C 1130.36 474.77, 1131.13 476.81, 1133.23 479.49 C 1135.32 482.17, 1137.15 483.53, 1140.69 484.78 C 1144.24 486.02, 1146.57 485.89, 1150.94 485.73 C 1155.32 485.58, 1157.81 485.10, 1162.55 483.98 C 1167.28 482.87, 1169.93 482.02, 1174.62 480.18 C 1179.32 478.33, 1181.79 477.17, 1186.02 474.75 C 1190.25 472.32, 1192.37 470.97, 1195.76 468.06 C 1199.15 465.16, 1200.72 463.51, 1202.95 460.22 C 1205.18 456.92, 1206.23 455.05, 1206.89 451.59 C 1207.55 448.14, 1207.21 446.12, 1206.26 442.96 C 1205.31 439.80, 1204.26 438.15, 1202.14 435.81 C 1200.02 433.46, 1198.35 432.39, 1195.68 431.24 C 1193.01 430.09, 1191.18 430.05, 1188.79 430.05 C 1186.39 430.06, 1185.30 430.45, 1183.72 431.24 C 1182.14 432.04, 1181.49 432.98, 1180.88 434.05 C 1180.27 435.11, 1180.33 435.75, 1180.69 436.58 C 1181.05 437.40, 1182.01 437.71, 1182.66 438.17 C 1183.31 438.64, 1183.37 438.56, 1183.92 438.90 C 1184.48 439.25, 1184.60 439.55, 1185.42 439.88 C 1186.23 440.20, 1186.72 440.27, 1188.00 440.55 C 1189.27 440.82, 1190.35 440.82, 1191.81 441.26 C 1193.26 441.71, 1194.12 441.87, 1195.28 442.76 C 1196.44 443.65, 1197.09 444.26, 1197.61 445.72 C 1198.13 447.17, 1198.16 447.98, 1197.87 450.04 C 1197.58 452.10, 1197.54 453.48, 1196.16 456.03 C 1194.79 458.58, 1193.69 460.19, 1190.99 462.77 C 1188.29 465.34, 1186.40 466.71, 1182.64 468.92 C 1178.89 471.13, 1176.52 472.24, 1172.21 473.80 C 1167.90 475.36, 1165.33 476.04, 1161.09 476.74 C 1156.84 477.43, 1154.47 477.49, 1150.99 477.29 C 1147.51 477.09, 1145.96 476.42, 1143.67 475.74 C 1141.38 475.07, 1140.60 474.81, 1139.54 473.91 C 1138.48 473.02, 1138.28 472.75, 1138.37 471.26 C 1138.46 469.77, 1138.72 468.79, 1139.97 466.45 C 1141.22 464.11, 1142.17 462.31, 1144.63 459.55 C 1147.09 456.79, 1148.96 455.11, 1152.27 452.64 C 1155.59 450.17, 1157.80 448.86, 1161.20 447.18 C 1164.60 445.51, 1166.54 444.92, 1169.25 444.25 C 1171.97 443.58, 1173.01 443.98, 1174.78 443.85 C 1176.55 443.71, 1176.77 443.86, 1178.09 443.58 C 1179.40 443.31, 1180.34 443.52, 1181.35 442.46 C 1182.36 441.41, 1183.27 439.87, 1183.16 438.33"
     style="stroke:black;fill:black;stroke-width:3.4;stroke-dasharray:none"
     id="path16" />
  <path
     d="M 1244.14,440.62 C 1242.68 440.37, 1241.87 440.55, 1240.14 441.65 C 1238.42 442.75, 1237.37 443.66, 1235.53 446.11 C 1233.69 448.56, 1233.00 450.68, 1230.95 453.88 C 1228.90 457.09, 1227.60 459.07, 1225.28 462.15 C 1222.95 465.22, 1221.29 466.66, 1219.32 469.26 C 1217.34 471.85, 1216.04 472.99, 1215.41 475.14 C 1214.78 477.30, 1215.13 478.65, 1216.17 480.03 C 1217.21 481.41, 1218.64 482.15, 1220.62 482.02 C 1222.59 481.90, 1223.99 481.50, 1226.07 479.41 C 1228.14 477.32, 1228.42 474.95, 1230.97 471.56 C 1233.53 468.17, 1235.21 466.02, 1238.86 462.46 C 1242.51 458.91, 1244.84 456.96, 1249.22 453.78 C 1253.60 450.59, 1256.22 448.96, 1260.76 446.54 C 1265.29 444.11, 1267.83 443.01, 1271.90 441.66 C 1275.97 440.31, 1278.11 440.10, 1281.09 439.77 C 1284.08 439.45, 1285.23 439.70, 1286.81 440.05 C 1288.40 440.39, 1288.65 440.43, 1289.02 441.48 C 1289.38 442.52, 1288.85 443.16, 1288.64 445.28 C 1288.44 447.41, 1288.65 448.92, 1288.00 452.10 C 1287.35 455.27, 1286.73 457.42, 1285.41 461.15 C 1284.09 464.89, 1283.06 467.06, 1281.39 470.78 C 1279.73 474.49, 1278.65 476.44, 1277.10 479.73 C 1275.54 483.02, 1274.40 484.53, 1273.62 487.24 C 1272.85 489.95, 1273.03 491.34, 1273.22 493.28 C 1273.41 495.23, 1273.71 496.11, 1274.57 496.96 C 1275.43 497.80, 1276.44 497.89, 1277.53 497.51 C 1278.62 497.13, 1278.95 496.48, 1280.02 495.06 C 1281.09 493.64, 1281.88 492.83, 1282.87 490.42 C 1283.86 488.01, 1283.80 486.28, 1284.97 483.01 C 1286.15 479.73, 1287.11 477.81, 1288.76 474.05 C 1290.42 470.29, 1291.59 468.14, 1293.26 464.21 C 1294.92 460.27, 1295.99 458.19, 1297.09 454.36 C 1298.18 450.53, 1299.06 448.48, 1298.74 445.07 C 1298.42 441.65, 1297.43 439.79, 1295.48 437.28 C 1293.53 434.76, 1292.08 433.50, 1288.99 432.49 C 1285.91 431.48, 1283.93 431.63, 1280.06 432.25 C 1276.19 432.87, 1274.07 433.78, 1269.64 435.59 C 1265.21 437.40, 1262.68 438.65, 1257.90 441.30 C 1253.12 443.95, 1250.45 445.64, 1245.75 448.84 C 1241.05 452.05, 1238.62 454.01, 1234.38 457.32 C 1230.14 460.64, 1228.03 462.53, 1224.56 465.40 C 1221.10 468.28, 1218.86 469.27, 1217.06 471.71 C 1215.26 474.15, 1215.30 475.75, 1215.55 477.61 C 1215.80 479.47, 1216.88 480.48, 1218.31 481.02 C 1219.73 481.57, 1220.94 481.51, 1222.69 480.33 C 1224.43 479.16, 1225.10 477.69, 1227.05 475.15 C 1228.99 472.60, 1230.07 470.68, 1232.43 467.61 C 1234.80 464.54, 1236.34 462.72, 1238.87 459.81 C 1241.39 456.89, 1243.26 455.60, 1245.06 453.05 C 1246.86 450.50, 1247.38 449.09, 1247.85 447.06 C 1248.33 445.02, 1248.17 444.17, 1247.43 442.88 C 1246.69 441.59, 1245.60 440.87, 1244.14 440.62"
     style="stroke: black; fill: black;"
     id="path17" />
</svg>
